<svg width="740" height="1645" viewBox="0 0 740 1645" fill="none" xmlns="http://www.w3.org/2000/svg">
<circle cx="-82.5" cy="822.5" r="179.5" fill="#8897A3"/>
<path d="M740 822.5C740 1276.75 371.754 1645 -82.5 1645C-536.754 1645 -905 1276.75 -905 822.5C-905 368.246 -536.754 0 -82.5 0C371.754 0 740 368.246 740 822.5ZM-688.249 822.5C-688.249 1157.05 -417.046 1428.25 -82.5 1428.25C252.046 1428.25 523.249 1157.05 523.249 822.5C523.249 487.954 252.046 216.751 -82.5 216.751C-417.046 216.751 -688.249 487.954 -688.249 822.5Z" fill="#8897A3"/>
<path d="M327 822.5C327 1048.66 143.661 1232 -82.5 1232C-308.661 1232 -492 1048.66 -492 822.5C-492 596.339 -308.661 413 -82.5 413C143.661 413 327 596.339 327 822.5ZM-431.266 822.5C-431.266 1015.12 -275.118 1171.27 -82.5 1171.27C110.118 1171.27 266.266 1015.12 266.266 822.5C266.266 629.882 110.118 473.734 -82.5 473.734C-275.118 473.734 -431.266 629.882 -431.266 822.5Z" fill="#8897A3"/>
</svg>
