<svg width="40" height="40" viewBox="0 0 40 40" fill="none" xmlns="http://www.w3.org/2000/svg">
<path d="M30.16 19.54C30.0489 19.2015 29.8495 18.8988 29.5823 18.6633C29.315 18.4277 28.9897 18.2677 28.64 18.2C28.2758 18.1403 27.9042 18.1403 27.54 18.2C27.2705 18.2525 27.0159 18.364 26.7946 18.5265C26.5733 18.689 26.3907 18.8986 26.26 19.14C26.0574 19.4992 25.9219 19.8923 25.86 20.3H30C30.2 20.3 30.26 20.3 30.24 20.02C30.233 19.8573 30.2061 19.6961 30.16 19.54ZM30.16 19.54C30.0489 19.2015 29.8495 18.8988 29.5823 18.6633C29.315 18.4277 28.9897 18.2677 28.64 18.2C28.2758 18.1403 27.9042 18.1403 27.54 18.2C27.2705 18.2525 27.0159 18.364 26.7946 18.5265C26.5733 18.689 26.3907 18.8986 26.26 19.14C26.0574 19.4992 25.9219 19.8923 25.86 20.3H30C30.2 20.3 30.26 20.3 30.24 20.02C30.233 19.8573 30.2061 19.6961 30.16 19.54ZM30.16 19.54C30.0489 19.2015 29.8495 18.8988 29.5823 18.6633C29.315 18.4277 28.9897 18.2677 28.64 18.2C28.2758 18.1403 27.9042 18.1403 27.54 18.2C27.2705 18.2525 27.0159 18.364 26.7946 18.5265C26.5733 18.689 26.3907 18.8986 26.26 19.14C26.0574 19.4992 25.9219 19.8923 25.86 20.3H30C30.2 20.3 30.26 20.3 30.24 20.02C30.233 19.8573 30.2061 19.6961 30.16 19.54ZM30.16 19.54C30.0489 19.2015 29.8495 18.8988 29.5823 18.6633C29.315 18.4277 28.9897 18.2677 28.64 18.2C28.2758 18.1403 27.9042 18.1403 27.54 18.2C27.2705 18.2525 27.0159 18.364 26.7946 18.5265C26.5733 18.689 26.3907 18.8986 26.26 19.14C26.0574 19.4992 25.9219 19.8923 25.86 20.3H30C30.2 20.3 30.26 20.3 30.24 20.02C30.233 19.8573 30.2061 19.6961 30.16 19.54ZM30 0H10C7.34784 0 4.8043 1.05357 2.92893 2.92893C1.05357 4.8043 0 7.34784 0 10V30C0 32.6522 1.05357 35.1957 2.92893 37.0711C4.8043 38.9464 7.34784 40 10 40H30C32.6522 40 35.1957 38.9464 37.0711 37.0711C38.9464 35.1957 40 32.6522 40 30V10C40 7.34784 38.9464 4.8043 37.0711 2.92893C35.1957 1.05357 32.6522 0 30 0ZM21.46 28H18.22C18.1645 28.0084 18.1077 28 18.0571 27.9757C18.0064 27.9515 17.9642 27.9125 17.936 27.864C17.9172 27.8321 17.905 27.7967 17.9 27.76C17.74 27.26 17.56 26.78 17.4 26.28C17.24 25.78 17 25.14 16.82 24.56C16.82 24.24 16.56 24.2 16.28 24.2H11.24C11.02 24.2 11.02 24.2 10.94 24.44C10.86 24.68 10.74 25.1 10.62 25.44L10.3 26.48L9.88 27.7C9.89078 27.7528 9.89078 27.8072 9.88 27.86C9.88 28.12 9.56 28.08 9.36 28.08H6.78C6.48 28.08 6.38 27.94 6.5 27.66C6.62 27.38 6.72 27.06 6.82 26.78L7.24 25.5L8.02 23.3C8.24 22.7 8.44 22.08 8.64 21.46C8.84 20.84 9.02 20.4 9.22 19.86L9.64 18.6L10.38 16.6L10.98 14.84C11.18 14.28 11.38 13.72 11.56 13.14C11.5881 12.8674 11.5881 12.5926 11.56 12.32C11.56 11.9 11.56 11.9 11.98 11.9H15.6C15.92 11.9 15.9 11.9 16 12.2C16.1 12.5 16.36 13.18 16.52 13.66C16.68 14.14 16.82 14.5 16.96 14.9L17.44 16.2L17.92 17.6C18.12 18.14 18.32 18.66 18.5 19.2L19.02 20.64C19.18 21.12 19.36 21.6 19.54 22.1C19.72 22.6 19.78 22.84 19.92 23.2C20.06 23.56 20.2 24 20.36 24.4C20.52 24.8 20.62 25.16 20.76 25.54L21.34 27.16L21.58 27.86C21.66 27.84 21.6 28 21.46 28ZM33.46 22C33.4693 22.18 33.4693 22.36 33.46 22.54C33.46 22.72 33.16 22.78 32.98 22.78H25.92C25.992 23.436 26.28 24.048 26.74 24.52C27.5734 25.0319 28.5193 25.3323 29.4953 25.395C30.4713 25.4578 31.4479 25.281 32.34 24.88C32.5 24.88 32.58 24.88 32.58 25.04V27.3C32.58 27.66 32.44 27.7 32.14 27.82L31.42 28.04C31.1913 28.1074 30.957 28.1543 30.72 28.18C30.22 28.18 29.72 28.32 29.22 28.34C28.72 28.36 28.54 28.34 28.2 28.34H28C27.6 28.34 27.18 28.34 26.8 28.2C25.6968 27.9797 24.6899 27.4203 23.92 26.6C23.4316 26.095 23.0506 25.4963 22.8 24.84C22.5977 24.361 22.463 23.8561 22.4 23.34C22.3713 22.7537 22.3713 22.1663 22.4 21.58C22.43 20.858 22.566 20.144 22.8 19.46C22.9967 18.8907 23.2727 18.3521 23.62 17.86C24.0757 17.1733 24.694 16.61 25.42 16.22C25.7333 16.0387 26.06 15.8853 26.4 15.76C26.7692 15.6721 27.1432 15.6054 27.52 15.56C27.86 15.54 28.2 15.54 28.54 15.56C29.0413 15.568 29.5347 15.6347 30.02 15.76C30.46 15.884 30.88 16.0573 31.28 16.28C31.8959 16.6332 32.4068 17.1441 32.76 17.76C32.96 18.12 33.12 18.48 33.28 18.84C33.3653 19.0947 33.432 19.3547 33.48 19.62C33.6588 20.4014 33.6792 21.2106 33.54 22H33.46ZM28.56 18.3C28.1958 18.2403 27.8242 18.2403 27.46 18.3C27.1905 18.3525 26.9359 18.464 26.7146 18.6265C26.4933 18.789 26.3107 18.9986 26.18 19.24C25.9774 19.5992 25.8419 19.9923 25.78 20.4H30C30.2 20.4 30.26 20.4 30.24 20.12C30.2234 19.9421 30.183 19.7672 30.12 19.6C30.0214 19.2554 29.832 18.9437 29.5716 18.6974C29.3113 18.4511 28.9895 18.2793 28.64 18.2L28.56 18.3ZM30.08 19.64C29.9689 19.3015 29.7695 18.9988 29.5023 18.7633C29.235 18.5277 28.9097 18.3677 28.56 18.3C28.1958 18.2403 27.8242 18.2403 27.46 18.3C27.1905 18.3525 26.9359 18.464 26.7146 18.6265C26.4933 18.789 26.3107 18.9986 26.18 19.24C25.9774 19.5992 25.8419 19.9923 25.78 20.4H30C30.2 20.4 30.26 20.4 30.24 20.12C30.24 19.9227 30.2133 19.7293 30.16 19.54L30.08 19.64ZM30.08 19.64C29.9689 19.3015 29.7695 18.9988 29.5023 18.7633C29.235 18.5277 28.9097 18.3677 28.56 18.3C28.1958 18.2403 27.8242 18.2403 27.46 18.3C27.1905 18.3525 26.9359 18.464 26.7146 18.6265C26.4933 18.789 26.3107 18.9986 26.18 19.24C25.9774 19.5992 25.8419 19.9923 25.78 20.4H30C30.2 20.4 30.26 20.4 30.24 20.12C30.24 19.9227 30.2133 19.7293 30.16 19.54L30.08 19.64ZM30.08 19.64C29.9689 19.3015 29.7695 18.9988 29.5023 18.7633C29.235 18.5277 28.9097 18.3677 28.56 18.3C28.1958 18.2403 27.8242 18.2403 27.46 18.3C27.1905 18.3525 26.9359 18.464 26.7146 18.6265C26.4933 18.789 26.3107 18.9986 26.18 19.24C25.9774 19.5992 25.8419 19.9923 25.78 20.4H30C30.2 20.4 30.26 20.4 30.24 20.12C30.24 19.9227 30.2133 19.7293 30.16 19.54L30.08 19.64ZM30.08 19.64C29.9689 19.3015 29.7695 18.9988 29.5023 18.7633C29.235 18.5277 28.9097 18.3677 28.56 18.3C28.1958 18.2403 27.8242 18.2403 27.46 18.3C27.1905 18.3525 26.9359 18.464 26.7146 18.6265C26.4933 18.789 26.3107 18.9986 26.18 19.24C25.9774 19.5992 25.8419 19.9923 25.78 20.4H30C30.2 20.4 30.26 20.4 30.24 20.12C30.24 19.9227 30.2133 19.7293 30.16 19.54L30.08 19.64Z" fill="black"/>
</svg>
