<svg width="40" height="34" viewBox="0 0 40 34" fill="none" xmlns="http://www.w3.org/2000/svg">
<path d="M12.248 21.722C12.258 22.242 12.426 23.256 12.674 24.05C13.2169 25.7565 14.123 27.3251 15.33 28.648C16.6249 30.0761 18.2085 31.2125 19.976 31.982C21.898 32.8276 23.9762 33.2603 26.076 33.252C28.1779 33.2543 30.2568 32.8148 32.178 31.962C33.9425 31.1821 35.5238 30.0409 36.82 28.612C38.0265 27.2864 38.9313 25.715 39.472 24.006C39.7351 23.171 39.9028 22.3088 39.972 21.436C40.1608 18.912 39.5386 16.3936 38.196 14.248C37.3766 12.9381 36.3302 11.7847 35.106 10.842L35.108 10.84L22.61 1.24201L22.578 1.21402C21.756 0.586015 20.376 0.588016 19.476 1.21802C18.562 1.85602 18.46 2.91002 19.268 3.57802L19.266 3.58002L24.478 7.82201L8.59197 7.84002H8.56797C7.25597 7.84002 5.99397 8.70401 5.74397 9.79202C5.48797 10.902 6.37997 11.822 7.74597 11.826L7.74397 11.832L15.798 11.816L1.42197 22.848L1.36797 22.89C0.0139717 23.928 -0.424028 25.654 0.427972 26.748C1.29597 27.86 3.13597 27.86 4.50797 26.752L12.352 20.334C12.354 20.334 12.24 21.2 12.248 21.722ZM32.404 24.622C30.788 26.27 28.528 27.204 26.078 27.208C23.626 27.212 21.366 26.286 19.748 24.642C18.9811 23.8779 18.3913 22.9549 18.02 21.938C17.6669 20.9721 17.531 19.9404 17.622 18.916C17.71 17.906 18.008 16.942 18.49 16.072C18.962 15.214 19.614 14.442 20.414 13.784C22.0188 12.4941 24.019 11.7963 26.078 11.808C28.135 11.7918 30.1349 12.4839 31.742 13.768C32.54 14.42 33.192 15.19 33.664 16.046C34.144 16.918 34.444 17.878 34.532 18.888C34.6235 19.9122 34.4883 20.944 34.136 21.91C33.7588 22.9273 33.1683 23.852 32.404 24.622Z" fill="black"/>
</svg>
