<svg width="24" height="24" viewBox="0 0 24 24" fill="none" xmlns="http://www.w3.org/2000/svg">
<path d="M16 12.8002V11.2002H17.6V12.8002H16Z" fill="black"/>
<path fill-rule="evenodd" clip-rule="evenodd" d="M12.0001 0.673828L22.4001 6.74103V17.2594L12.0001 23.3282L1.6001 17.2594V6.74103L12.0001 0.673828ZM10.1313 6.40023C9.43108 6.39981 8.73764 6.53742 8.09064 6.80519C7.44364 7.07295 6.85576 7.46563 6.36063 7.96076C5.8655 8.45589 5.47282 9.04377 5.20505 9.69077C4.93729 10.3378 4.79968 11.0312 4.8001 11.7314V12.269C4.80031 13.1775 5.03267 14.0708 5.47513 14.8643C5.91759 15.6577 6.55546 16.3249 7.32821 16.8026C8.10096 17.2802 8.98296 17.5525 9.89049 17.5935C10.798 17.6346 11.701 17.443 12.5137 17.037L13.1585 16.717L12.4417 15.285L11.7985 15.605C11.23 15.89 10.5981 16.0247 9.96281 15.9965C9.32754 15.9683 8.71004 15.7781 8.16902 15.4439C7.628 15.1098 7.18146 14.6428 6.87184 14.0874C6.56223 13.5319 6.39983 12.9065 6.4001 12.2706V11.733C6.40017 11.0972 6.56272 10.4719 6.87234 9.91656C7.18195 9.3612 7.62836 8.89417 8.16918 8.5598C8.71 8.22544 9.3273 8.03483 9.96248 8.00606C10.5977 7.97729 11.2297 8.11132 11.7985 8.39543L12.4417 8.71703L13.1585 7.28663L12.5137 6.96503C11.7743 6.59245 10.9593 6.39897 10.1313 6.40023ZM14.4001 8.00023V9.60023H12.8001V11.2002H14.4001V12.8002H12.8001V14.4002H14.4001V16.0002H16.0001V14.4002H17.6001V16.0002H19.2001V14.4002H20.8001V12.8002H19.2001V11.2002H20.8001V9.60023H19.2001V8.00023H17.6001V9.60023H16.0001V8.00023H14.4001Z" fill="black"/>
</svg>
