<svg width="48" height="46" viewBox="0 0 48 46" fill="none" xmlns="http://www.w3.org/2000/svg">
<path d="M1.304 0.52002C1.11075 0.519849 0.92005 0.564133 0.746649 0.649447C0.573248 0.73476 0.421794 0.858816 0.304003 1.01202C-0.399997 1.90802 0.234003 2.80802 1.028 3.53602C1.44 3.91402 4.568 7.12402 7.884 10.59C8.92731 9.12458 10.1464 7.79264 11.514 6.62402C7.334 4.03002 3.388 1.53202 2.922 1.20002C2.402 0.82802 1.834 0.52402 1.304 0.52002ZM11.514 6.62402C15.21 8.92002 19.086 11.288 20.9 12.304C23.838 13.946 28.416 17.672 29.084 21.172C30.154 22.104 33.448 25.004 34.276 25.998C35.672 25.576 37.312 26.264 38.396 28.238C40.128 31.404 38.85 35.732 34.46 38.214C34.2698 38.3998 34.0724 38.578 33.868 38.748L34.46 38.214C36.74 35.278 33.032 33.334 32.11 30.486C31.9389 29.9846 31.8643 29.4552 31.89 28.926C30.824 28.362 27.67 26.022 26.3 24.996C22.698 25.316 17.886 21.45 15.6 18.836C14.2 17.232 10.96 13.802 7.884 10.59C5.22719 14.3246 3.79719 18.7928 3.792 23.376C3.792 27.7478 5.08838 32.0214 7.5172 35.6563C9.94602 39.2913 13.3982 42.1245 17.4372 43.7975C21.4761 45.4705 25.9205 45.9082 30.2083 45.0553C34.496 44.2024 38.4346 42.0972 41.5259 39.0059C44.6172 35.9146 46.7224 31.9761 47.5753 27.6883C48.4282 23.4005 47.9904 18.9562 46.3174 14.9172C44.6444 10.8782 41.8113 7.42603 38.1763 4.99722C34.5413 2.5684 30.2678 1.27202 25.896 1.27202C20.616 1.28002 15.514 3.18002 11.514 6.62402ZM28.934 21.728C27.904 21.98 26.998 23.39 26.698 24.34C26.622 24.57 26.618 24.946 26.83 25.024C28.434 26.208 29.942 27.36 31.63 28.424C31.954 27.638 33.122 26.498 33.822 26.024L28.934 21.728ZM5.874 25.006C7.498 28.802 17.47 39.346 29.994 30.396C29.9866 30.8823 30.0638 31.3661 30.222 31.826C31.142 34.666 34.942 36.68 32.698 39.606C28.428 42.334 22.698 42.008 18.72 40.662C11.604 38.254 6.894 31.998 5.874 25.006ZM33.438 26.406L33.308 26.504C33.3 26.512 33.2927 26.5174 33.286 26.52C33.2927 26.512 33.3013 26.5067 33.308 26.504C33.356 26.474 33.394 26.436 33.438 26.408V26.406Z" fill="black"/>
</svg>
