<svg width="40" height="40" viewBox="0 0 40 40" fill="none" xmlns="http://www.w3.org/2000/svg">
<path d="M30 0H10C7.34784 0 4.8043 1.05357 2.92893 2.92893C1.05357 4.8043 0 7.34784 0 10V30C0 32.6522 1.05357 35.1957 2.92893 37.0711C4.8043 38.9464 7.34784 40 10 40H30C32.6522 40 35.1957 38.9464 37.0711 37.0711C38.9464 35.1957 40 32.6522 40 30V10C40 7.34784 38.9464 4.8043 37.0711 2.92893C35.1957 1.05357 32.6522 0 30 0ZM18 22C16.9906 22.6411 15.8339 23.0129 14.64 23.08H11.96C11.4 23.08 11.4 23.08 11.4 23.62V28.26C11.4 28.66 11.28 28.78 10.88 28.78H8.24C7.86 28.78 7.76 28.64 7.76 28.28V11.42C7.76 11.02 7.76 10.9 8.26 10.9H14.52C15.6626 10.931 16.7782 11.2546 17.76 11.84C18.6079 12.3178 19.3138 13.012 19.8057 13.8517C20.2977 14.6915 20.5579 15.6468 20.56 16.62C20.6757 17.6661 20.4974 18.7237 20.0452 19.6741C19.593 20.6245 18.8847 21.4299 18 22ZM29.84 28.6C28.1007 29.2776 26.1964 29.4102 24.38 28.98C23.8347 28.86 23.3013 28.7 22.78 28.5C22.6996 28.4623 22.6289 28.4066 22.5734 28.3372C22.518 28.2679 22.4792 28.1867 22.46 28.1V25.08C23.1 25.32 23.7 25.6 24.32 25.8C25.3591 26.1321 26.4592 26.2278 27.54 26.08C27.756 26.04 27.9627 25.9733 28.16 25.88C28.2772 25.8287 28.3791 25.7478 28.4557 25.6454C28.5324 25.5429 28.5811 25.4223 28.5973 25.2954C28.6134 25.1684 28.5963 25.0395 28.5477 24.9211C28.4991 24.8027 28.4207 24.699 28.32 24.62C27.8625 24.3033 27.3732 24.0352 26.86 23.82C26.04 23.42 25.2 23.1 24.42 22.64C23.7157 22.2974 23.1408 21.7368 22.7805 21.0414C22.4202 20.346 22.2937 19.5529 22.42 18.78C22.5217 18.0361 22.8308 17.3358 23.3118 16.7593C23.7928 16.1828 24.4264 15.7533 25.14 15.52C26.4263 15.085 27.7988 14.9684 29.14 15.18C29.78 15.18 30.4 15.42 31.04 15.54C31.38 15.54 31.5 15.82 31.48 16.16V18.5C31.48 18.94 31.38 18.98 30.98 18.82C29.7309 18.2417 28.3501 18.0069 26.98 18.14C26.7859 18.1626 26.5967 18.2166 26.42 18.3C26.3 18.3471 26.1944 18.4247 26.1137 18.5252C26.0329 18.6257 25.9798 18.7455 25.9596 18.8728C25.9394 19.0001 25.9528 19.1305 25.9985 19.251C26.0441 19.3715 26.1205 19.4781 26.22 19.56C26.7987 19.9453 27.4053 20.2787 28.04 20.56C28.8 20.94 29.6 21.24 30.34 21.66C31.0115 21.9656 31.5677 22.4777 31.9275 23.1218C32.2873 23.7658 32.4318 24.508 32.34 25.24C32.2768 25.9702 32.0059 26.6671 31.5594 27.2483C31.1128 27.8295 30.5093 28.2708 29.82 28.52L29.84 28.6Z" fill="black"/>
</svg>
