<svg width="48" height="48" viewBox="0 0 48 48" fill="none" xmlns="http://www.w3.org/2000/svg">
<path d="M20.3 16.84C19.5497 16.544 18.7459 16.4078 17.94 16.44C17.2131 16.425 16.4859 16.4383 15.76 16.48V23.2L16.54 23.24H17.6C18.38 23.24 19.16 23.12 19.9 22.88C20.54 22.7 21.1 22.32 21.54 21.82C21.96 21.32 22.16 20.64 22.16 19.76C22.2052 19.138 22.0486 18.518 21.7135 17.992C21.3785 17.466 20.8828 17.062 20.3 16.84ZM39.5 0.599976H8.5C6.24566 0.599976 4.08365 1.49551 2.48959 3.08957C0.895533 4.68363 0 6.84564 0 9.09998L0 38.9C0 43.6 3.8 47.4 8.5 47.4H39.5C44.2 47.4 48 43.6 48 38.9V9.09998C48 4.39998 44.2 0.599976 39.5 0.599976ZM25.32 23.9C24.52 25.02 23.4 25.86 22.1 26.34C20.74 26.84 19.24 27.02 17.6 27.02L16.6 27L15.74 26.98V33.4C15.7457 33.4331 15.7443 33.4669 15.7361 33.4995C15.7279 33.532 15.7129 33.5624 15.6922 33.5888C15.6714 33.6152 15.6454 33.637 15.6157 33.6527C15.5861 33.6684 15.5535 33.6777 15.52 33.68H11.64C11.48 33.68 11.4 33.6 11.4 33.42V12.84C11.4 12.7 11.46 12.62 11.6 12.62L12.72 12.6L14.24 12.56L15.98 12.52L17.8 12.5C19.44 12.5 20.8 12.7 21.92 13.12C22.92 13.46 23.84 14.02 24.6 14.76C25.24 15.4 25.74 16.18 26.06 17.04C26.36 17.88 26.52 18.74 26.52 19.64C26.52 21.36 26.12 22.78 25.32 23.9ZM38.96 17.6V21.5C38.96 21.66 38.86 21.72 38.64 21.72C37.3204 21.672 36.0073 21.9251 34.8 22.46C34.42 22.64 34.06 22.88 33.78 23.2V33.4C33.78 33.6 33.7 33.68 33.52 33.68H29.58C29.5432 33.6856 29.5056 33.6839 29.4695 33.6748C29.4333 33.6657 29.3994 33.6496 29.3696 33.6272C29.3398 33.6049 29.3147 33.5768 29.2959 33.5446C29.2771 33.5125 29.2649 33.4769 29.26 33.44V22.28L29.24 20.78L29.2 19.22C29.2 18.76 29.16 18.32 29.12 17.86C29.1132 17.8126 29.1235 17.7644 29.1492 17.724C29.1749 17.6837 29.2142 17.6538 29.26 17.64H32.82C33.02 17.64 33.18 17.78 33.22 17.96C33.4017 18.5561 33.4894 19.1769 33.48 19.8C34.08 19.1 34.82 18.52 35.64 18.08C36.5697 17.5636 37.6165 17.295 38.68 17.3C38.82 17.28 38.94 17.38 38.96 17.52V17.6Z" fill="black"/>
</svg>
