<svg width="24" height="24" viewBox="0 0 24 24" fill="none" xmlns="http://www.w3.org/2000/svg">
<path fill-rule="evenodd" clip-rule="evenodd" d="M2 8.87056C2 12 6.92803 22 11.6039 22C16.2798 22 21.2243 12.4423 21.2243 8.50984C21.2243 6.02352 18.9116 2 11.5763 2C4.24109 2 2 6.44464 2 8.87056ZM8.21973 9.57085C6.46813 7.68003 5.38102 5.76336 5.38102 5.76336C5.38102 5.76336 7.17215 4.87153 8.34229 4.63337C8.44198 4.61311 8.54365 4.59136 8.64782 4.56923C9.76612 4.33108 11.1573 4.035 13.1633 4.75518C17.3371 6.25372 19.1167 9.05663 19.1167 9.05663C19.1167 9.05663 16.4307 6.89373 13.4731 6.45943C11.7693 6.20922 8.60021 7.22411 8.60021 7.22411C8.60021 7.22411 9.70173 8.39002 10.5983 10.0971C10.7396 10.3662 10.8773 10.6126 11.0092 10.8485C11.7137 12.1085 12.249 13.0657 12.249 15.5631C12.249 17.3852 10.8717 20.0929 10.8717 20.0929C10.8717 20.0929 11.6453 16.565 11.0214 13.7755C10.5706 11.759 10.2228 11.4487 9.40305 10.7174C9.08882 10.4371 8.70512 10.0949 8.21973 9.57085Z" fill="black"/>
</svg>
