<svg width="24" height="24" viewBox="0 0 24 24" fill="none" xmlns="http://www.w3.org/2000/svg">
<path d="M13.0002 3C9.23021 3 6.19021 5.95 6.00021 9.66L4.08021 12.19C3.84021 12.5 4.08021 13 4.50021 13H6.00021V16C6.00021 17.11 6.89021 18 8.00021 18H9.00021V21H16.0002V16.31C18.3702 15.19 20.0002 12.8 20.0002 10C20.0002 6.14 16.8802 3 13.0002 3ZM10.0002 11C9.45021 11 9.00021 10.55 9.00021 10C9.00021 9.45 9.45021 9 10.0002 9C10.5502 9 11.0002 9.45 11.0002 10C11.0002 10.55 10.5502 11 10.0002 11ZM13.0002 11C12.4502 11 12.0002 10.55 12.0002 10C12.0002 9.45 12.4502 9 13.0002 9C13.5502 9 14.0002 9.45 14.0002 10C14.0002 10.55 13.5502 11 13.0002 11ZM16.0002 11C15.4502 11 15.0002 10.55 15.0002 10C15.0002 9.45 15.4502 9 16.0002 9C16.5502 9 17.0002 9.45 17.0002 10C17.0002 10.55 16.5502 11 16.0002 11Z" fill="black"/>
</svg>
