<svg width="48" height="48" viewBox="0 0 48 48" fill="none" xmlns="http://www.w3.org/2000/svg">
<g clip-path="url(#clip0_162_1665)">
<mask id="mask0_162_1665" style="mask-type:luminance" maskUnits="userSpaceOnUse" x="0" y="0" width="48" height="48">
<path d="M0 0H48V48H0V0Z" fill="white"/>
</mask>
<g mask="url(#mask0_162_1665)">
<path d="M0.45603 16.7401C0.45603 16.7401 -0.71197 15.8861 0.69003 14.7501L3.96003 11.7941C3.96003 11.7941 4.89403 10.8001 5.88403 11.6661L36.046 34.7501V45.8181C36.046 45.8181 36.032 47.5581 33.826 47.3661L0.45603 16.7401Z" fill="black"/>
<path d="M8.23202 23.8739L0.456019 31.0179C0.456019 31.0179 -0.343981 31.6179 0.456019 32.6919L4.06602 36.0119C4.06602 36.0119 4.92402 36.9419 6.19002 35.8819L14.432 29.5659L8.23202 23.8739ZM21.88 23.9319L36.14 12.9279L36.046 1.91794C36.046 1.91794 35.436 -0.486061 33.406 0.765939L14.432 18.2199L21.88 23.9319Z" fill="black"/>
<path d="M33.824 47.38C34.652 48.236 35.656 47.956 35.656 47.956L46.768 42.422C48.19 41.442 47.99 40.226 47.99 40.226V7.17597C47.99 5.72397 46.52 5.22197 46.52 5.22197L36.888 0.527975C34.784 -0.786025 33.406 0.765975 33.406 0.765975C33.406 0.765975 35.178 -0.524025 36.046 1.91797V45.618C36.046 45.918 35.982 46.212 35.856 46.478C35.602 46.996 35.052 47.478 33.732 47.278L33.824 47.38Z" fill="black"/>
</g>
</g>
<defs>
<clipPath id="clip0_162_1665">
<rect width="48" height="48" fill="white"/>
</clipPath>
</defs>
</svg>
